<?xml version="1.0" standalone="no"?>
<!DOCTYPE svg PUBLIC "-//W3C//DTD SVG 20010904//EN"
 "http://www.w3.org/TR/2001/REC-SVG-20010904/DTD/svg10.dtd">
<svg version="1.0" xmlns="http://www.w3.org/2000/svg"
 width="700.000000pt" height="700.000000pt" viewBox="0 0 700.000000 700.000000"
 preserveAspectRatio="xMidYMid meet">
<metadata>
Created by potrace 1.14, written by Peter Selinger 2001-2017
</metadata>
<g transform="translate(0.000000,700.000000) scale(0.100000,-0.100000)"
fill="#000000" stroke="none">
<path d="M529 6405 c-97 -24 -154 -101 -153 -205 0 -39 7 -77 17 -96 25 -48
85 -102 125 -114 20 -5 124 -10 230 -10 l193 0 38 -82 c21 -46 62 -132 91
-193 29 -60 69 -146 90 -190 21 -44 58 -123 82 -175 25 -52 60 -126 78 -165
18 -38 64 -135 102 -214 37 -79 68 -145 68 -146 0 -2 38 -82 85 -180 47 -97
85 -178 85 -180 0 -2 41 -89 170 -360 23 -49 60 -126 80 -170 21 -44 60 -128
88 -187 l51 -107 -78 -143 c-42 -79 -97 -179 -121 -223 -24 -44 -54 -100 -68
-125 -43 -81 -104 -193 -162 -300 -80 -148 -102 -211 -105 -299 -3 -88 18
-161 70 -237 61 -89 139 -141 259 -174 l79 -22 1711 0 c1240 0 1723 3 1753 11
23 6 58 27 78 47 111 108 82 286 -58 361 -30 16 -152 17 -1737 18 -1579 0
-1705 2 -1702 17 1 9 22 52 46 95 23 43 62 114 86 158 23 44 55 103 70 130 15
28 49 91 75 140 80 150 107 200 116 209 5 6 469 10 1151 11 1220 1 1178 -1
1278 50 44 22 133 87 169 124 49 50 98 124 188 286 55 99 111 198 123 220 12
22 39 69 58 105 19 36 44 81 55 100 11 19 32 58 47 85 51 94 82 150 100 180
10 17 32 57 51 90 18 33 43 78 56 100 12 22 26 47 29 55 4 8 24 44 44 80 50
87 87 154 120 215 15 28 36 66 47 85 135 238 208 379 219 428 40 170 -46 302
-212 326 -21 3 -1018 6 -2214 6 l-2175 0 -57 123 c-32 67 -83 176 -114 242
-61 132 -80 157 -139 188 -38 20 -56 21 -325 23 -189 1 -301 -3 -331 -11z
m4987 -1008 c4 -3 -5 -25 -19 -49 -13 -24 -39 -70 -57 -103 -78 -144 -103
-191 -110 -200 -4 -5 -29 -50 -55 -100 -26 -49 -69 -128 -95 -175 -26 -47 -64
-116 -85 -155 -21 -38 -59 -108 -85 -155 -26 -47 -114 -206 -195 -355 -81
-148 -159 -291 -174 -317 l-26 -48 -1050 0 -1050 1 -32 67 c-17 37 -74 155
-126 262 -52 107 -119 247 -150 310 -30 63 -94 196 -142 295 -48 99 -109 225
-135 280 -51 107 -210 437 -215 445 -5 8 3793 5 3801 -3z"/>
<path d="M1931 1615 c-307 -99 -449 -445 -304 -742 36 -73 147 -185 221 -222
170 -86 377 -77 527 23 274 182 323 551 105 789 -105 115 -220 168 -375 173
-84 2 -112 -1 -174 -21z"/>
<path d="M4876 1625 c-156 -39 -293 -161 -354 -315 -115 -287 50 -617 348
-699 123 -34 255 -21 378 37 78 37 190 149 231 233 77 157 71 348 -17 499 -36
62 -137 159 -201 194 -113 61 -263 81 -385 51z"/>
</g>
</svg>
